<?xml version="1.0" encoding="UTF-8"?>
<svg id="Layer_1" xmlns="http://www.w3.org/2000/svg" version="1.1" viewBox="0 0 640 640">
  <!-- Generator: Adobe Illustrator 30.1.0, SVG Export Plug-In . SVG Version: 2.1.1 Build 136)  -->
  <defs>
    <style>
      .st0 {
        fill: #f2efe9;
      }
    </style>
  </defs>
  <path class="st0" d="M224.2,89c-7.9-18.9-28.5-28.9-48.1-23.6l-5.5,1.5c-64.6,17.6-119.8,80.2-103.7,156.4,37.1,175,174.8,312.7,349.8,349.8,76.3,16.2,138.8-39.1,156.4-103.7l1.5-5.5c5.4-19.7-4.7-40.3-23.5-48.1l-97.3-40.5c-16.5-6.9-35.6-2.1-47,11.8l-38.6,47.2c-70.3-34.9-126.9-93.3-159.4-165l44.2-36c13.9-11.3,18.6-30.4,11.8-47l-40.6-97.3Z"/>
</svg>